<svg xmlns="http://www.w3.org/2000/svg" viewBox="0 0 157.63 157.63"><defs><style>.cls-1,.cls-3{fill:none;stroke:#2d88ff;stroke-miterlimit:10;}.cls-1{stroke-width:2px;}.cls-2{fill:#2d88ff;}.cls-3{stroke-linecap:round;stroke-width:2.5px;}</style></defs><g id="Layer_2" data-name="Layer 2"><g id="Layer_1-2" data-name="Layer 1"><circle class="cls-1" cx="78.82" cy="78.82" r="77.82"/><circle class="cls-1" cx="78.82" cy="78.82" r="73.28"/><path class="cls-1" d="M78.77,37.28h.09"/><path class="cls-2" d="M18.91,59.07a10.71,10.71,0,0,1,3-5,7,7,0,0,1,3-1.59,4.61,4.61,0,0,1,2.78.14,4.42,4.42,0,0,1,2.49,2.74,8.52,8.52,0,0,1,.44,3.89A14.32,14.32,0,0,1,30.11,62a13.77,13.77,0,0,1-1.5,3.3,9.58,9.58,0,0,1-2.82,3,5.23,5.23,0,0,1-3.3,1,3.92,3.92,0,0,1-3.16-2,8.16,8.16,0,0,1-1-4.38A13.18,13.18,0,0,1,18.91,59.07Zm1.94,1.67A2.05,2.05,0,0,0,21,62.46a1.34,1.34,0,0,0,1,.65A5.63,5.63,0,0,0,24.21,63a11.25,11.25,0,0,0,2.47-.86,2.94,2.94,0,0,0,.86-.68,2.64,2.64,0,0,0,.53-.91,1.81,1.81,0,0,0,0-1.38,1.5,1.5,0,0,0-1-.81,5.83,5.83,0,0,0-2.18-.16,6.3,6.3,0,0,0-2.26.63,3.4,3.4,0,0,0-1.09.83A3.32,3.32,0,0,0,20.85,60.74Z"/><path class="cls-2" d="M36,48.66c-.24.35-.46.71-.69,1.08-.46.77-.77,1.35-1,1.72s-.28.58-.36.73a1.71,1.71,0,0,1-.67.73.77.77,0,0,1-.7.06.45.45,0,0,1-.27-.25,3.14,3.14,0,0,1-.07-.73.81.81,0,0,0-.27-.57,9.5,9.5,0,0,0-1.21-.84,42.81,42.81,0,0,0-3.81-2,3,3,0,0,0-1.22-.38,1.51,1.51,0,0,0-.86.53q-.56.59-1,.42a.66.66,0,0,1-.32-.66A2.63,2.63,0,0,1,24,47.31c.13-.23.3-.53.52-.89l1.18-1.9c.31-.5.9-1.48,1.84-2.88.3-.44.58-.83.83-1.18a11.7,11.7,0,0,1,1.64-1.83,4.57,4.57,0,0,1,1.49-.89,2.11,2.11,0,0,1,2.11.26,2.06,2.06,0,0,1,.64.89A2.29,2.29,0,0,1,34.41,40c0,.27,0,.44.09.52s.29,0,.55-.14a4.12,4.12,0,0,1,1.7-.6,2.22,2.22,0,0,1,1.72.5,2.72,2.72,0,0,1,1,2.05A5.67,5.67,0,0,1,38,46.06c-.14.18-.49.62-1,1.35S36.15,48.5,36,48.66Zm-7.12-5,1.42.84a.94.94,0,0,0,.55.17.59.59,0,0,0,.4-.3,1.57,1.57,0,0,0,.37-1.14,1.49,1.49,0,0,0-.74-.92A1.67,1.67,0,0,0,29.71,42a1.56,1.56,0,0,0-1,.72.72.72,0,0,0-.18.53C28.55,43.41,28.69,43.55,28.92,43.69Zm4,2.35.66.38a3.52,3.52,0,0,0,1.3.56.83.83,0,0,0,.72-.44,1.22,1.22,0,0,0-.32-2,1.62,1.62,0,0,0-2.5.44.91.91,0,0,0-.23.6C32.54,45.76,32.66,45.9,32.89,46Z"/><path class="cls-2" d="M37.12,31a14.09,14.09,0,0,1,1.94-1.4c.88-.51,1.48-.57,1.77-.23a.38.38,0,0,1,.11.35,3.52,3.52,0,0,1-.36.69,1,1,0,0,0,0,1,12,12,0,0,0,1.49,1.86,22.67,22.67,0,0,0,2.65,2.62.84.84,0,0,0,.4.14,2.08,2.08,0,0,0,.54-.1.83.83,0,0,1,.94.15c.27.32.16.75-.31,1.32a18.94,18.94,0,0,1-2.06,2c-1.46,1.31-2.39,1.83-2.89,1.39-.18-.15-.2-.44-.07-.86a.87.87,0,0,0-.09-.81,25.92,25.92,0,0,0-2.69-2.71,7.29,7.29,0,0,0-2.12-1.55,1.47,1.47,0,0,0-1,.11,2.81,2.81,0,0,1-.69.19.49.49,0,0,1-.38-.13c-.18-.14-.21-.37-.09-.68a6,6,0,0,1,.9-1.37A14.21,14.21,0,0,1,37.12,31Z"/><path class="cls-2" d="M51.15,22c2.06-.94,3.26-1,3.54-.44a.57.57,0,0,1,0,.46,2,2,0,0,1-.43.59.83.83,0,0,0-.27.64,4.34,4.34,0,0,0,.44,1.13c.16.32.34.49.54.49a1.15,1.15,0,0,0,.46-.09l1.35-.52A7.36,7.36,0,0,0,58,23.7a.38.38,0,0,0,.08-.48A5.42,5.42,0,0,0,57.4,22a.89.89,0,0,0-.68-.34,2.4,2.4,0,0,1-.7-.09.49.49,0,0,1-.28-.27.66.66,0,0,1,.08-.64A1.72,1.72,0,0,1,56.5,20a13.28,13.28,0,0,1,2.62-1.07A10.74,10.74,0,0,1,62,18.37q1,0,1.14.54c.08.3-.07.57-.44.82a1.43,1.43,0,0,0-.45.38,1,1,0,0,0-.05.5c0,.13.15.68.41,1.65s.48,1.73.66,2.3A8.63,8.63,0,0,0,64,26.41a.68.68,0,0,0,.25.24,3.09,3.09,0,0,0,.65.15.55.55,0,0,1,.47.39c.11.37-.08.7-.54,1a11.34,11.34,0,0,1-2.42,1,8.69,8.69,0,0,1-2.3.49c-.5,0-.81-.14-1-.46a.69.69,0,0,1,.23-.81,1,1,0,0,0,.24-.35,1.25,1.25,0,0,0,0-.48A6.21,6.21,0,0,0,59.22,26c-.12-.3-.26-.46-.4-.49a2.1,2.1,0,0,0-.92.21,7.89,7.89,0,0,0-2,1q-.15.12-.06.42a5.59,5.59,0,0,0,.35.83A2.19,2.19,0,0,0,57,29a1.7,1.7,0,0,0,.57.1.67.67,0,0,1,.62.41c.15.32,0,.68-.45,1.07a9.43,9.43,0,0,1-2.11,1.26,10.66,10.66,0,0,1-2.26.85,1.65,1.65,0,0,1-.73,0,.62.62,0,0,1-.45-.28.45.45,0,0,1-.09-.4,2.12,2.12,0,0,1,.37-.61.77.77,0,0,0,.18-.41,1.47,1.47,0,0,0-.16-.56,15.91,15.91,0,0,0-1.11-2.1l-.34-.54L49.93,26a1.66,1.66,0,0,0-.59-.68,2.21,2.21,0,0,0-1,0c-.33.06-.56,0-.67-.18-.29-.44.13-1.1,1.29-1.92A13.15,13.15,0,0,1,51.15,22Z"/><path class="cls-2" d="M72.71,16.23a8.74,8.74,0,0,1,4.89.87,5.76,5.76,0,0,1,2.21,2,4.23,4.23,0,0,1,.72,2.45A4.62,4.62,0,0,1,79,24.71,7.81,7.81,0,0,1,75.9,26.5a9.74,9.74,0,0,1-2.3.49,9.42,9.42,0,0,1-3-.2,7,7,0,0,1-3.08-1.5,5,5,0,0,1-1.66-2.58,4,4,0,0,1,.6-3.38,6.58,6.58,0,0,1,3-2.34A10.74,10.74,0,0,1,72.71,16.23Zm-.77,2.27a1.68,1.68,0,0,0-1.3.72,1.42,1.42,0,0,0-.23,1.05,5.91,5.91,0,0,0,.75,1.91A9.87,9.87,0,0,0,72.54,24a2.32,2.32,0,0,0,.78.52,1.77,1.77,0,0,0,.87.14A1.51,1.51,0,0,0,75.66,23,6.34,6.34,0,0,0,74,19.33a2.76,2.76,0,0,0-1-.65A2.28,2.28,0,0,0,71.94,18.5Z"/><path class="cls-2" d="M96.84,22.7l-.63,1.76a6.92,6.92,0,0,1-1.11,2.17,4.81,4.81,0,0,1-3.4,1.29,11.89,11.89,0,0,1-3-.22,9.32,9.32,0,0,1-4.34-1.81,3.18,3.18,0,0,1-1-1.42,5.75,5.75,0,0,1-.14-2.19c0-.37.11-1,.21-1.82.08-.59.13-1,.14-1.18a1.83,1.83,0,0,0,0-.87,1.17,1.17,0,0,0-.53-.5c-.44-.25-.66-.5-.64-.77a.63.63,0,0,1,.39-.5,2.38,2.38,0,0,1,1-.25,15.76,15.76,0,0,1,2.83.11,15.17,15.17,0,0,1,2.91.6c.74.25,1.05.59,1,1a.58.58,0,0,1-.43.44s-.28.06-.67.13a.7.7,0,0,0-.52.3,2.76,2.76,0,0,0-.29.9c-.08.43-.28,1.37-.6,2.8a2.2,2.2,0,0,0,.5,2.1,3.16,3.16,0,0,0,1.76.91,4.28,4.28,0,0,0,1.37.07,2.23,2.23,0,0,0,1.06-.38,1.64,1.64,0,0,0,.53-.55,4.25,4.25,0,0,0,.39-.93L94,22.29a14.46,14.46,0,0,0,.51-2.21q0-.34-.51-.66a2.67,2.67,0,0,1-.64-.49.39.39,0,0,1-.11-.39c.08-.29.39-.45.93-.47a9.29,9.29,0,0,1,2.47.43,8.68,8.68,0,0,1,2.26.89c.43.29.58.57.47.85a.41.41,0,0,1-.24.27,3.77,3.77,0,0,1-.75.1,1.06,1.06,0,0,0-.78.27A13,13,0,0,0,96.84,22.7Z"/><path class="cls-2" d="M107.32,22.48a11.43,11.43,0,0,1,2.4,1.69,1.68,1.68,0,0,0,.28.2,4.12,4.12,0,0,0,.64.2,1.54,1.54,0,0,1,.35.15,2,2,0,0,1,.85,1.46,2.08,2.08,0,0,1-.25,1.69,1,1,0,0,1-.73.42,1.32,1.32,0,0,1-.88-.2,1.42,1.42,0,0,1-.51-.44c-.1-.15-.28-.55-.58-1.18a3.84,3.84,0,0,0-1.72-1.9,1.93,1.93,0,0,0-1-.24.66.66,0,0,0-.58.33c-.22.39.09.91.9,1.58a16.18,16.18,0,0,1,2,1.87c1.14,1.39,1.27,2.62.52,3.62a3.53,3.53,0,0,1-3,1.36A9,9,0,0,1,101.88,32a17.19,17.19,0,0,1-2.07-1.2,7.08,7.08,0,0,1-1.46-1.19,2.05,2.05,0,0,1-.29-1.26,4,4,0,0,1,.29-1.6.86.86,0,0,1,.41-.46.84.84,0,0,1,.66,0,1,1,0,0,1,.53.53,8.45,8.45,0,0,1,.41,1.33,2.43,2.43,0,0,0,.69,1.07,4.49,4.49,0,0,0,1.26.89,2.9,2.9,0,0,0,1.1.3.7.7,0,0,0,.66-.28.63.63,0,0,0,0-.62,3.39,3.39,0,0,0-.79-.84c-.71-.6-1.25-1.07-1.61-1.43a7.47,7.47,0,0,1-.93-1.17,3,3,0,0,1-.47-2.8,2.41,2.41,0,0,1,.93-1.06,3.85,3.85,0,0,1,1.6-.57A7.79,7.79,0,0,1,107.32,22.48Z"/><path class="cls-2" d="M118.63,29.69a14.15,14.15,0,0,1,1.71,1.64c.66.76.8,1.31.46,1.63a.42.42,0,0,1-.35.14,4,4,0,0,1-.79-.27,1.12,1.12,0,0,0-1,.14,11.07,11.07,0,0,0-1.8,1.6,21,21,0,0,0-2.49,2.76.56.56,0,0,0-.09.38,1.62,1.62,0,0,0,.16.5c.2.39.18.68,0,.89s-.78.23-1.45-.14a21,21,0,0,1-2.42-1.67c-1.54-1.18-2.16-2-1.76-2.47.15-.19.44-.25.89-.18a1,1,0,0,0,.85-.19A26.11,26.11,0,0,0,113,31.64a7.19,7.19,0,0,0,1.42-2.14,1.26,1.26,0,0,0-.22-.86A2.16,2.16,0,0,1,114,28a.42.42,0,0,1,.09-.37.66.66,0,0,1,.7-.17,6.38,6.38,0,0,1,1.53.65A15.09,15.09,0,0,1,118.63,29.69Z"/><path class="cls-2" d="M126.55,38.25a51.59,51.59,0,0,1,.39,6.3,2.58,2.58,0,0,0,.18,1.16c.21.31.57.33,1.09,0a3.38,3.38,0,0,0,1.11-.81,1,1,0,0,0,.1-.87,1.56,1.56,0,0,1-.06-.68.55.55,0,0,1,.28-.38c.38-.22.88,0,1.48.68a12.53,12.53,0,0,1,1.08,1.6,11.94,11.94,0,0,1,1.1,2.21c.21.71.11,1.15-.27,1.32s-.69,0-1.13-.45a2.84,2.84,0,0,0-.39-.34.67.67,0,0,0-.33-.08,4.57,4.57,0,0,0-2,.59l-2.36,1.15-1.48.73a6.9,6.9,0,0,1-1.94.71,1.05,1.05,0,0,1-1.17-.47,1.11,1.11,0,0,1-.17-.49,4.88,4.88,0,0,1,.05-.83,48.26,48.26,0,0,0,.19-7,1.77,1.77,0,0,0-.3-1.07c-.27-.32-.77-.21-1.48.33a4.8,4.8,0,0,0-1.11,1,1,1,0,0,0-.09.82c.13.44.08.73-.15.9-.61.42-1.47-.1-2.7-1.45a5.76,5.76,0,0,1-1.1-1.58.82.82,0,0,1,.11-1,.62.62,0,0,1,.4-.18,2.54,2.54,0,0,1,.69.18,1.1,1.1,0,0,0,1-.12A20.24,20.24,0,0,0,120,38.39a9.53,9.53,0,0,0,2-2.15,1.11,1.11,0,0,0,.18-.55,1.57,1.57,0,0,0-.19-.64,2.21,2.21,0,0,1-.23-.7.49.49,0,0,1,.16-.4c.38-.34,1.06-.14,2,.66a19.18,19.18,0,0,1,1.55,1.57,5.84,5.84,0,0,1,.79,1A3,3,0,0,1,126.55,38.25Z"/><path class="cls-2" d="M138.21,58.62a12.39,12.39,0,0,1,.59,3.13,6.55,6.55,0,0,0,.1.92,7.41,7.41,0,0,0,.44,1,3.58,3.58,0,0,1,.19.55,2,2,0,0,1-.24,1.46A2.16,2.16,0,0,1,137.6,67a1.55,1.55,0,0,1-1.24-.42,2.53,2.53,0,0,1-.73-1.36,3.29,3.29,0,0,1,0-1.43,12,12,0,0,1,.51-1.13,4.29,4.29,0,0,0,.22-3.25,3.83,3.83,0,0,0-1.54-2.21,2.68,2.68,0,0,0-2.3-.26,4.37,4.37,0,0,0-2.72,2.2,3.72,3.72,0,0,0-.39,1.35,3.57,3.57,0,0,0,.12,1.39,1.58,1.58,0,0,0,.53.85,1,1,0,0,0,.81.22.51.51,0,0,0,.46-.41.69.69,0,0,0,0-.24c0-.07-.07-.28-.17-.63a1.39,1.39,0,0,1,0-.83.65.65,0,0,1,.46-.44c.44-.1.88.22,1.31,1a12.93,12.93,0,0,1,1.14,3.15A13.49,13.49,0,0,1,134.5,68c0,.9-.3,1.37-.79,1.4a.75.75,0,0,1-.56-.26,1.68,1.68,0,0,1-.39-.75,1.54,1.54,0,0,0-.22-.53,1.17,1.17,0,0,0-.47-.2A5.54,5.54,0,0,1,129.51,66,10.29,10.29,0,0,1,128.06,64,13.44,13.44,0,0,1,127,61.44a12.2,12.2,0,0,1-.6-4.13,6.83,6.83,0,0,1,1-3.51A4.52,4.52,0,0,1,129.51,52a4.33,4.33,0,0,1,3.06,0A7.52,7.52,0,0,1,136,54.41,12.15,12.15,0,0,1,138.21,58.62Z"/><path class="cls-2" d="M31.18,96.65a9.8,9.8,0,0,1,.41,4.7,6.86,6.86,0,0,1-1.13,2.75,4.63,4.63,0,0,1-2.05,1.71,4.43,4.43,0,0,1-3.92-.4,9,9,0,0,1-3.3-3.34A13.51,13.51,0,0,1,19.81,99a12.34,12.34,0,0,1-.53-4.27,7,7,0,0,1,1.35-4.1,3.84,3.84,0,0,1,2.86-1.56,5.41,5.41,0,0,1,3.73,1.31,10.87,10.87,0,0,1,2.69,3.27A14.64,14.64,0,0,1,31.18,96.65Zm-2.58-.47a2.06,2.06,0,0,0-1-1.3,1.69,1.69,0,0,0-1.18-.23,5.08,5.08,0,0,0-2,.9,7.16,7.16,0,0,0-1.74,1.78,2.52,2.52,0,0,0-.36,1,2.74,2.74,0,0,0,.11,1.14,2.33,2.33,0,0,0,.92,1.3,1.59,1.59,0,0,0,1.36.19,5.78,5.78,0,0,0,1.89-1,6.45,6.45,0,0,0,1.52-1.58,2.93,2.93,0,0,0,.47-1.11A2.53,2.53,0,0,0,28.6,96.18Z"/><path class="cls-2" d="M27.56,115.15c-.29-.43-.57-.87-.85-1.31-.59-.93-1-1.63-1.28-2.07s-.42-.67-.52-.84a2.17,2.17,0,0,1-.31-1.13.66.66,0,0,1,.35-.61.47.47,0,0,1,.4,0,4.56,4.56,0,0,1,.71.49,1,1,0,0,0,.67.19,8.39,8.39,0,0,0,1.46-.38,34.67,34.67,0,0,0,4-1.67,3.42,3.42,0,0,0,1.06-.67,1.18,1.18,0,0,0,.11-.86c-.07-.46,0-.74.3-.86a.75.75,0,0,1,.71.11,2.2,2.2,0,0,1,.68.78l.38.75c.27.5.57,1,.91,1.58s.76,1.2,1.59,2.32l.7.94a11.56,11.56,0,0,1,1.08,1.68A3.36,3.36,0,0,1,40.1,115a2,2,0,0,1-.78,1.77,2.23,2.23,0,0,1-1,.44,2.47,2.47,0,0,1-1.18-.08c-.27-.09-.45-.1-.55,0s-.11.25,0,.52a4.16,4.16,0,0,1,.31,1.69,1.93,1.93,0,0,1-.76,1.54,2.85,2.85,0,0,1-2.4.47,6.79,6.79,0,0,1-3.95-2.84c-.17-.22-.58-.78-1.2-1.71S27.68,115.35,27.56,115.15Zm7.91-3.76-1.41.84a1,1,0,0,0-.41.39.52.52,0,0,0,.12.45,1.58,1.58,0,0,0,1,.73,2,2,0,0,0,1.93-1.25,1.16,1.16,0,0,0-.22-1,.61.61,0,0,0-.4-.31A.94.94,0,0,0,35.47,111.39Zm-4,2.35-.66.39a2.94,2.94,0,0,0-1.08.88.89.89,0,0,0,.2.89c.66.93,1.4,1.12,2.19.59a1.5,1.5,0,0,0,.42-2.42,1.09,1.09,0,0,0-.5-.46A.7.7,0,0,0,31.51,113.74Z"/><path class="cls-2" d="M45.89,119.53a16.15,16.15,0,0,1,1.38,1.35c.55.61.68,1.08.38,1.43a.48.48,0,0,1-.32.18,3,3,0,0,1-.72-.13,1.11,1.11,0,0,0-1,.24,13.07,13.07,0,0,0-1.72,1.67,18.78,18.78,0,0,0-2.35,2.86.66.66,0,0,0-.06.4,2,2,0,0,0,.25.53c.27.41.31.72.12.94s-.82.28-1.63-.16a15.93,15.93,0,0,1-2.91-2.11c-1.8-1.61-2.38-2.72-1.89-3.14.18-.16.51-.14,1,0a1.07,1.07,0,0,0,.94,0,22.31,22.31,0,0,0,3-2.44,8.24,8.24,0,0,0,1.74-1.92,1.22,1.22,0,0,0,0-.84,1.82,1.82,0,0,1-.1-.6.5.5,0,0,1,.18-.33.68.68,0,0,1,.69-.08,5.61,5.61,0,0,1,1.22.7A19.42,19.42,0,0,1,45.89,119.53Z"/><path class="cls-2" d="M57.3,126.83c1.67.76,2.39,1.38,2.11,2a.67.67,0,0,1-.32.34,2.05,2.05,0,0,1-.67.13,1,1,0,0,0-.64.26,4.83,4.83,0,0,0-.63,1c-.16.33-.18.56-.06.7a1,1,0,0,0,.36.25c.18.08.6.26,1.28.52a4.54,4.54,0,0,0,1.19.35.42.42,0,0,0,.39-.31,5.79,5.79,0,0,0,.43-1.34.75.75,0,0,0-.19-.65,1.6,1.6,0,0,1-.37-.49.44.44,0,0,1,0-.37.88.88,0,0,1,.49-.43,1.7,1.7,0,0,1,.82-.07,15.47,15.47,0,0,1,2.26.55,9.35,9.35,0,0,1,2.23.89q.69.44.54,1a.78.78,0,0,1-.74.52,1.33,1.33,0,0,0-.53.14,1,1,0,0,0-.31.4c-.06.12-.26.65-.6,1.6s-.6,1.7-.78,2.27a7.06,7.06,0,0,0-.44,1.92.66.66,0,0,0,.09.34,4.82,4.82,0,0,0,.56.46.5.5,0,0,1,.25.56c-.11.37-.5.57-1.18.57a10.92,10.92,0,0,1-3.14-.62,9.19,9.19,0,0,1-2.61-1.17c-.45-.34-.61-.67-.47-1s.41-.4.86-.41a1.29,1.29,0,0,0,.49-.09,1.33,1.33,0,0,0,.38-.34,6.23,6.23,0,0,0,.78-1.4c.12-.3.14-.51.05-.62a2.54,2.54,0,0,0-.86-.43,13.5,13.5,0,0,0-2.18-.71.46.46,0,0,0-.4.23,7.27,7.27,0,0,0-.46.79,1.8,1.8,0,0,0-.25,1.27,1.61,1.61,0,0,0,.37.49.58.58,0,0,1,.15.71c-.15.33-.59.45-1.32.35a10.38,10.38,0,0,1-2.88-1,10.84,10.84,0,0,1-2.46-1.55,1.84,1.84,0,0,1-.5-.64.57.57,0,0,1,0-.53.51.51,0,0,1,.36-.25,4.22,4.22,0,0,1,.85.05.83.83,0,0,0,.51,0,1.29,1.29,0,0,0,.46-.4,14.06,14.06,0,0,0,1.37-2c.1-.16.21-.34.33-.56l1.07-1.83a1.68,1.68,0,0,0,.34-.81,1.66,1.66,0,0,0-.42-.76.49.49,0,0,1-.09-.6c.29-.44,1-.45,2.13-.09A15.16,15.16,0,0,1,57.3,126.83Z"/><path class="cls-2" d="M74.82,131.4a8.21,8.21,0,0,1,3.94,1.32,7,7,0,0,1,1.95,2,4.82,4.82,0,0,1,.83,2.41A4,4,0,0,1,80,140.35,7.49,7.49,0,0,1,76.31,142a11.13,11.13,0,0,1-2.88.11,9.77,9.77,0,0,1-3.47-1,5.91,5.91,0,0,1-2.72-2.5,4.06,4.06,0,0,1-.37-3,5,5,0,0,1,2-2.85,7.53,7.53,0,0,1,3.23-1.31A10.09,10.09,0,0,1,74.82,131.4Zm-1.1,2.09a1.54,1.54,0,0,0-1.3.42,1.56,1.56,0,0,0-.51,1,5.21,5.21,0,0,0,.15,2A6.82,6.82,0,0,0,73,139a2.28,2.28,0,0,0,.71.67,2.35,2.35,0,0,0,.94.3,1.82,1.82,0,0,0,1.31-.35,1.46,1.46,0,0,0,.55-1.11,6.08,6.08,0,0,0-.26-2,7.15,7.15,0,0,0-.83-1.87,3.07,3.07,0,0,0-.76-.8A2,2,0,0,0,73.72,133.49Z"/><path class="cls-2" d="M96.9,133l.63,1.76a5.73,5.73,0,0,1,.49,2.36c-.14,1.07-1,2.07-2.53,2.91a11.16,11.16,0,0,1-3.39,1.16,9.8,9.8,0,0,1-5.67-.35,3.28,3.28,0,0,1-1.51-1.18,5.06,5.06,0,0,1-.57-2.14c0-.37-.07-1-.11-1.82,0-.59-.06-1-.08-1.18a2.28,2.28,0,0,0-.2-.86,1.11,1.11,0,0,0-.54-.42c-.42-.19-.63-.43-.65-.69a.65.65,0,0,1,.27-.54,1.69,1.69,0,0,1,.76-.37,19.2,19.2,0,0,1,2.27-.39,17.62,17.62,0,0,1,2.43-.15c.64,0,1,.23,1.11.65a.57.57,0,0,1-.17.55,3.93,3.93,0,0,1-.5.33.62.62,0,0,0-.32.44,3.29,3.29,0,0,0,.06.93c.09.44.24,1.38.45,2.83a2.18,2.18,0,0,0,1.31,1.81,3.62,3.62,0,0,0,2.22.15,4.12,4.12,0,0,0,1.42-.54,2.19,2.19,0,0,0,.83-.83,1.39,1.39,0,0,0,.18-.73,3.81,3.81,0,0,0-.19-1c-.16-.53-.32-1.07-.49-1.61a17.18,17.18,0,0,0-.78-2.13.9.9,0,0,0-.72-.36,2.42,2.42,0,0,1-.72-.16.47.47,0,0,1-.26-.31c-.08-.29.07-.56.45-.79a12.09,12.09,0,0,1,3.87-1.09c.44,0,.72.14.83.42a.46.46,0,0,1,0,.34,2.62,2.62,0,0,1-.43.49.9.9,0,0,0-.36.63A14.71,14.71,0,0,0,96.9,133Z"/><path class="cls-2" d="M102.9,126.33a12.69,12.69,0,0,1,2.33-.76.88.88,0,0,0,.28-.1,2.75,2.75,0,0,0,.39-.38,1.55,1.55,0,0,1,.24-.19,2,2,0,0,1,1.56,0,2.73,2.73,0,0,1,1.5.92.91.91,0,0,1,.17.76,1,1,0,0,1-.49.65,1.56,1.56,0,0,1-.61.22,10.33,10.33,0,0,1-1.31-.1,4.1,4.1,0,0,0-2.39.29,1.48,1.48,0,0,0-.64.55.58.58,0,0,0,0,.61c.22.39.82.49,1.8.24,1.33-.33,2.2-.57,2.61-.63,1.78-.29,3.06,0,3.8,1a2.74,2.74,0,0,1,0,3.16,8.52,8.52,0,0,1-3.87,3.29,14.87,14.87,0,0,1-2.78,1,8.49,8.49,0,0,1-2.28.34,2.39,2.39,0,0,1-1.3-.66,3.8,3.8,0,0,1-1-1.34.72.72,0,0,1,0-.59.83.83,0,0,1,.5-.45,1.19,1.19,0,0,1,.81,0,14.69,14.69,0,0,1,1.4.6A2.91,2.91,0,0,0,105,135a5.12,5.12,0,0,0,1.72-.47,2.79,2.79,0,0,0,1-.74c.22-.27.27-.49.16-.69a.73.73,0,0,0-.6-.29,4.82,4.82,0,0,0-1.29.17,15.9,15.9,0,0,1-2.31.35,7.28,7.28,0,0,1-1.62-.12,3.08,3.08,0,0,1-2.44-1.68,2.51,2.51,0,0,1-.17-1.34,3.49,3.49,0,0,1,.53-1.4A6.6,6.6,0,0,1,102.9,126.33Z"/><path class="cls-2" d="M112.14,120.56a13.39,13.39,0,0,1,1.6-1.13c.71-.44,1.24-.52,1.57-.2a.45.45,0,0,1,.16.32,2.71,2.71,0,0,1-.24.66,1,1,0,0,0,.14.94,13.47,13.47,0,0,0,1.58,1.79,18.91,18.91,0,0,0,2.77,2.51.77.77,0,0,0,.43.1,2.42,2.42,0,0,0,.59-.17c.47-.21.81-.22,1,0s.19.79-.37,1.5a15.45,15.45,0,0,1-2.58,2.45c-1.9,1.46-3.11,1.85-3.5,1.34-.14-.18-.09-.48.16-.9a.87.87,0,0,0,.1-.85,21.4,21.4,0,0,0-2.26-3,8.52,8.52,0,0,0-1.84-1.84,1.45,1.45,0,0,0-.87-.09,2,2,0,0,1-.64,0,.5.5,0,0,1-.33-.21.57.57,0,0,1,0-.63,4.92,4.92,0,0,1,.86-1A17.32,17.32,0,0,1,112.14,120.56Z"/><path class="cls-2" d="M119.39,114.19a45.5,45.5,0,0,0,5.82-2,2.39,2.39,0,0,0,1-.62c.2-.3,0-.6-.49-.88a4.08,4.08,0,0,0-1.29-.54,1.1,1.1,0,0,0-.81.25,1.66,1.66,0,0,1-.58.28.63.63,0,0,1-.47-.1c-.39-.22-.43-.67-.15-1.34a12.72,12.72,0,0,1,.76-1.37,11.25,11.25,0,0,1,1.13-1.69c.42-.46.81-.62,1.2-.45s.44.48.37,1a1.67,1.67,0,0,0,0,.45.82.82,0,0,0,.13.27,4.93,4.93,0,0,0,1.67,1.12l2.36,1.15,1.49.71a5.57,5.57,0,0,1,1.72,1.1,1.07,1.07,0,0,1,.12,1.35,1.89,1.89,0,0,1-.42.49,6.27,6.27,0,0,1-.88.52,50.84,50.84,0,0,1-7.39,3.08,2.39,2.39,0,0,0-1,.57c-.27.33,0,.75.66,1.29a4.31,4.31,0,0,0,1.32.78,1.2,1.2,0,0,0,.93-.17c.46-.28.8-.34,1-.18.6.42.21,1.54-1.31,3.21A7.1,7.1,0,0,1,124.4,124c-.53.27-.93.28-1.18,0a.47.47,0,0,1-.19-.37,2.55,2.55,0,0,1,.21-.73.91.91,0,0,0-.17-1,17.23,17.23,0,0,0-2.12-2,12.33,12.33,0,0,0-2.48-1.71,1.4,1.4,0,0,0-.58-.13,1.83,1.83,0,0,0-.61.16,1.77,1.77,0,0,1-.67.19.6.6,0,0,1-.42-.16c-.37-.34-.24-.89.36-1.7.2-.27.6-.71,1.17-1.35a5.5,5.5,0,0,1,.79-.75A3,3,0,0,1,119.39,114.19Z"/><path class="cls-2" d="M128,97a14.63,14.63,0,0,1,1-2.43,3.4,3.4,0,0,0,.33-.71,4.33,4.33,0,0,0,0-.92,1.83,1.83,0,0,1,0-.46,1.87,1.87,0,0,1,.79-1.07,2.91,2.91,0,0,1,2.07-.7,1.32,1.32,0,0,1,1,.62,1.83,1.83,0,0,1,.15,1.37A2.77,2.77,0,0,1,132.8,94a9.71,9.71,0,0,1-1,.79A4.7,4.7,0,0,0,130,97.21a3.16,3.16,0,0,0,.05,2.32,2.57,2.57,0,0,0,1.71,1.37,4.49,4.49,0,0,0,3.65-.42,4.23,4.23,0,0,0,1.19-1.06,4,4,0,0,0,.75-1.43,1.74,1.74,0,0,0,0-1.08.75.75,0,0,0-.6-.54.62.62,0,0,0-.64.22,1,1,0,0,0-.14.23c0,.07-.09.29-.2.66a1.59,1.59,0,0,1-.47.78.7.7,0,0,1-.65.19c-.44-.1-.62-.59-.57-1.45a20.85,20.85,0,0,1,.53-3.26,25,25,0,0,1,1-3.34c.35-.87.75-1.3,1.24-1.27a.57.57,0,0,1,.47.35,1.56,1.56,0,0,1,.12.84,1.37,1.37,0,0,0,0,.58.87.87,0,0,0,.37.32,3.85,3.85,0,0,1,1.74,2.39,8.26,8.26,0,0,1,.29,2.78,13.09,13.09,0,0,1-.58,3.25,12.49,12.49,0,0,1-2.48,4.52,7,7,0,0,1-3.55,2.32,4.41,4.41,0,0,1-2.88-.18,4.33,4.33,0,0,1-2.13-2,7.18,7.18,0,0,1-.87-3.51A12.08,12.08,0,0,1,128,97Z"/><path class="cls-1" d="M59.78,114.72A41.07,41.07,0,0,1,78.05,37.28"/><path class="cls-1" d="M87,38.08a41.08,41.08,0,0,1,16.69,73"/><line class="cls-3" x1="82.18" y1="34.17" x2="82.18" y2="46.61"/><path class="cls-3" d="M77.22,49.46c-.45.63,4.52-7,10,.3"/><path class="cls-3" d="M76.73,54.22c0,.15,4.77-5.43,10.69.13"/><path class="cls-3" d="M76.74,58.84c-.28-.11,5.51-4.33,11,.16"/><path class="cls-3" d="M73.22,64.93S80,58.17,91,64.93"/><path class="cls-3" d="M73.5,69.91s6.76-6.77,17.82,0"/><path class="cls-3" d="M73.5,74.53c1.11-1.63,9.4-5.22,17.82,0"/><path class="cls-3" d="M64.35,82.18c.06.49,17-11.22,35.83.12"/><path class="cls-3" d="M64.35,87.54c.06.5,17-11.22,35.83.12"/><path class="cls-3" d="M64.35,92.65c-1.62-1.15,21.16-9.32,35.83.11"/><path class="cls-3" d="M64.39,97.25c-1.57-.27,21.24-7.83,35.83.11"/><path class="cls-3" d="M64.61,101.61c-1.82.15,20.57-6.18,35.61,1"/><path class="cls-3" d="M65,105.48s37-2.29,34.58,2.9"/><path class="cls-3" d="M65,110.45s39-.42,34.36,2.41"/><path class="cls-3" d="M64.85,115.25s39-.42,34.36,2.41"/><path class="cls-3" d="M64.5,119.7s-1.07,2.1,17.28,1.49"/><polygon class="cls-2" points="22.31 77 23.22 78.86 25.27 79.15 23.79 80.59 24.14 82.63 22.31 81.67 20.48 82.63 20.83 80.59 19.35 79.15 21.4 78.86 22.31 77"/><polygon class="cls-2" points="136.73 76 137.64 77.86 139.69 78.15 138.21 79.59 138.56 81.63 136.73 80.67 134.9 81.63 135.25 79.59 133.77 78.15 135.82 77.86 136.73 76"/></g></g></svg>